inDegrees=yes
name=ik_S53_A07_T02
DataType=double
version=3
OpenSimVersion=4.3-2021-08-27-4bc7ad9
endheader
time	pelvis_tilt	pelvis_list	pelvis_rotation	pelvis_tx	pelvis_ty	pelvis_tz	hip_flexion_r	hip_adduction_r	hip_rotation_r	knee_angle_r	knee_angle_r_beta	ankle_angle_r	subtalar_angle_r	mtp_angle_r	hip_flexion_l	hip_adduction_l	hip_rotation_l	knee_angle_l	knee_angle_l_beta	ankle_angle_l	subtalar_angle_l	mtp_angle_l	lumbar_extension	lumbar_bending	lumbar_rotation	arm_flex_r	arm_add_r	arm_rot_r	elbow_flex_r	pro_sup_r	wrist_flex_r	wrist_dev_r	arm_flex_l	arm_add_l	arm_rot_l	elbow_flex_l	pro_sup_l	wrist_flex_l	wrist_dev_l
7.379999999999931	-4.831989692017312	-0.6852246644744751	20.15210206781002	0	0.9399999999999999	0	35.24159696145597	-12.51628470686178	-10.01917071658942	53.97990832496743	0.9421271301953789	0	0	0	35.24159696145597	-12.51628470686178	-10.01917071658942	53.97990832496743	0.9421271301953789	0	0	0	-2.997611801614693	-3.24294943661484	1.062591201463484	21.45296247735399	-5.712495775231071	1.027416315492744	52.32581635793151	132.9346724191944	0	0	20.35056558788155	-6.402617275860794	-2.177371953348397	43.05538508047252	126.1941091737928	0	0
7.39999999999993	-4.804774598378883	-0.6654663462291919	20.28504067970537	0	0.9399999999999999	0	35.24851588209855	-12.51019023140372	-10.01914095011998	53.98038888241177	0.9421355175050277	0	0	0	35.24851588209855	-12.51019023140372	-10.01914095011998	53.98038888241177	0.9421355175050277	0	0	0	-2.96755482283212	-3.225901147814753	0.9656949128086708	21.36742285525517	-5.824909051615475	1.200778799543927	54.69935493381653	131.7711216895512	0	0	20.2782550043914	-6.36584554001948	-2.166933180568699	43.01090994932972	126.2592052401903	0	0
7.41999999999993	-4.788239179551208	-0.6556682242897562	20.40854913304326	0	0.9399999999999999	0	35.2626783269877	-12.49774081495653	-10.01908004292152	53.98136965698176	0.9421526352504938	0	0	0	35.2626783269877	-12.49774081495653	-10.01908004292152	53.98136965698176	0.9421526352504938	0	0	0	-2.952905427572472	-3.210714171601735	0.8587673293421418	21.36977486252509	-6.107393730864718	1.594102566837921	59.87223909360956	129.3412218102821	0	0	20.19883366193048	-6.381145440630047	-1.933753272600173	43.0843360497034	126.0975567025475	0	0
7.439999999999929	-4.769122896840627	-0.6696305343797049	20.85074658461452	0	0.9399999999999999	0	35.27470636700137	-12.48716339055818	-10.01902826581349	53.9821993307602	0.942167115789645	0	0	0	35.27470636700137	-12.48716339055818	-10.01902826581349	53.9821993307602	0.942167115789645	0	0	0	-2.936300501946729	-3.213121932225092	0.448620731008826	25.86581305881081	-6.155606744229515	3.694927283756476	56.33785648375957	127.224697828381	0	0	20.13531327931148	-6.428785903335492	-1.824443732883661	43.11816805363359	126.0395688545003	0	0
7.459999999999929	-4.749736516643412	-0.6851364210089906	21.00584351942865	0	0.9399999999999999	0	35.27933470406392	-12.48308820507229	-10.01900833235904	53.98251878021449	0.942172691234416	0	0	0	35.27933470406392	-12.48308820507229	-10.01900833235904	53.98251878021449	0.942172691234416	0	0	0	-2.925510406862101	-3.223701794886449	0.3280481188843992	27.30193184575708	-6.172319088415175	4.280348793737473	57.66250096551538	125.7586422869991	0	0	20.11791513133522	-6.475447584676476	-1.772919523656197	43.0969745871236	126.0260086989975	0	0
7.479999999999928	-4.73521053116539	-0.6984871572935984	21.16792234830932	0	0.9399999999999999	0	35.2835583596621	-12.47937454773731	-10.0189901547616	53.98281041920844	0.9421777812950877	0	0	0	35.2835583596621	-12.47937454773731	-10.0189901547616	53.98281041920844	0.9421777812950877	0	0	0	-2.917880111960849	-3.233272063182205	0.1894924848235472	28.76549170978045	-6.127699589842567	4.923262716069043	58.9841688968824	124.2217626783484	0	0	20.12877746466497	-6.493896685348107	-1.778587300964995	43.11611107104094	125.9866006253329	0	0
7.499999999999928	-4.716487117711422	-0.6961284337232236	21.34666688998451	0	0.9399999999999999	0	35.28909388449558	-12.47450294919812	-10.01896631216273	53.98319190920914	0.9421844395516633	0	0	0	35.28909388449558	-12.47450294919812	-10.01896631216273	53.98319190920914	0.9421844395516633	0	0	0	-2.901907596132127	-3.22725800938772	0.05856673341262292	30.22983497003765	-6.051351346635234	5.547387748850718	60.16169492384776	122.8939193087841	0	0	20.12089881358296	-6.467096004382924	-1.815372626893106	43.07890743459439	126.0257972087537	0	0
7.519999999999928	-4.702248740852939	-0.7175825610310735	21.52763450337287	0	0.9399999999999999	0	35.29611552057158	-12.46832697124549	-10.01893607150827	53.983675442133	0.9421928787932264	0	0	0	35.29611552057158	-12.46832697124549	-10.01893607150827	53.983675442133	0.9421928787932264	0	0	0	-2.89920554438574	-3.24145486680735	-0.07033781090913188	31.7448466235411	-5.850370162164846	6.13607284926815	61.03906782319523	121.6797811567419	0	0	20.1144017859233	-6.50382102876886	-1.752300778691003	43.10736464361573	125.9723296579548	0	0
7.539999999999927	-4.703262612852988	-0.7252755992841677	21.67310166926459	0	0.9399999999999999	0	35.30066567414975	-12.46434038801852	-10.01891651972231	53.98398961933702	0.9421983622198713	0	0	0	35.30066567414975	-12.46434038801852	-10.01891651972231	53.98398961933702	0.9421983622198713	0	0	0	-2.905683484329092	-3.235845831356136	-0.2255960222435824	33.31766203487864	-5.567516971132071	6.774034319233754	61.44315179474024	120.4583214577978	0	0	20.11311168879667	-6.518726170889448	-1.760728063803583	43.14320360808428	125.9157575334662	0	0
7.559999999999927	-4.689291905654042	-0.7456415522783211	21.8500379738434	0	0.9399999999999999	0	35.30385599075554	-12.46155500655113	-10.01890283988358	53.98421048159064	0.9422022169933905	0	0	0	35.30385599075554	-12.46155500655113	-10.01890283988358	53.98421048159064	0.9422022169933905	0	0	0	-2.902052044203611	-3.250523619271943	-0.3665949023859201	34.90141536452631	-5.132411045070857	7.319594922714491	61.42949990723729	119.2493622055335	0	0	20.11117947377445	-6.574666314998114	-1.722621847064922	43.18211661425948	125.8689628843936	0	0
7.579999999999926	-4.647369195522781	-0.785784316900296	22.06704830098688	0	0.9399999999999999	0	35.30815550300392	-12.4578124211814	-10.01888443666147	53.98450877834044	0.9422074232538223	0	0	0	35.30815550300392	-12.4578124211814	-10.01888443666147	53.98450877834044	0.9422074232538223	0	0	0	-2.877800427454367	-3.301082114373665	-0.3915353020799681	34.83950983311074	-5.263599343122285	7.140370493188381	62.69199526848606	118.1120724158913	0	0	20.16588431625575	-6.505058408991135	-1.778739923212071	43.00969580696184	126.1450371401251	0	0
